<?xml version="1.0" encoding="UTF-8"?>
<!DOCTYPE svg PUBLIC "-//W3C//DTD SVG 1.1//EN" "http://www.w3.org/Graphics/SVG/1.1/DTD/svg11.dtd">
<svg version="1.1" xmlns="http://www.w3.org/2000/svg" xmlns:xlink="http://www.w3.org/1999/xlink" x="0px" y="0px" width="101" height="121" viewBox="0, 0, 101, 121">
  <g id="Layer 1">
    <path d="M28.709,28.63 C32.225,28.63 36.467,29.356 41.436,30.809 C46.451,32.263 49.779,32.989 51.42,32.989 C53.529,32.989 56.975,32.169 61.756,30.528 C66.537,28.888 70.686,28.067 74.201,28.067 C79.967,28.067 85.1,29.614 89.6,32.708 C92.131,34.489 94.639,36.903 97.123,39.95 C93.373,43.138 90.631,45.974 88.897,48.458 C85.756,52.958 84.186,57.927 84.186,63.364 C84.186,69.317 85.85,74.684 89.178,79.466 C92.506,84.247 96.303,87.27 100.57,88.536 C98.787,94.302 95.834,100.33 91.709,106.61 C85.475,116.03 79.287,120.74 73.147,120.74 C70.709,120.74 67.334,119.97 63.022,118.42 C58.756,116.87 55.147,116.1 52.194,116.1 C49.24,116.1 45.795,116.9 41.858,118.49 C37.967,120.13 34.803,120.95 32.365,120.95 C25.006,120.95 17.787,114.72 10.709,102.25 C3.631,89.919 0.092,77.825 0.092,65.966 C0.092,54.95 2.787,45.974 8.178,39.036 C13.615,32.098 20.459,28.63 28.709,28.63 M73.006,0.927 C73.193,1.536 73.311,2.076 73.358,2.544 C73.404,3.013 73.428,3.482 73.428,3.951 C73.428,6.951 72.725,10.232 71.319,13.795 C69.912,17.357 67.686,20.662 64.639,23.708 C62.014,26.287 59.412,28.021 56.834,28.912 C55.194,29.427 52.709,29.826 49.381,30.107 C49.475,22.982 51.326,16.818 54.936,11.615 C58.592,6.412 64.615,2.849 73.006,0.928" fill="#FFFFFF"/>
  </g>
  <defs/>
</svg>
