<?xml version="1.0" encoding="UTF-8"?>
<!DOCTYPE svg PUBLIC "-//W3C//DTD SVG 1.1//EN" "http://www.w3.org/Graphics/SVG/1.1/DTD/svg11.dtd">
<svg version="1.1" xmlns="http://www.w3.org/2000/svg" xmlns:xlink="http://www.w3.org/1999/xlink" x="0px" y="0px" width="595.28" height="841.89" viewBox="0, 0, 595.28, 841.89">
  <g id="Layer 1">
    <path d="M291.741,205.481 C176.359,205.481 82.481,299.352 82.481,414.741 C82.481,530.13 176.359,624.001 291.741,624.001 C407.123,624.001 501.001,530.13 501.001,414.741 C501.001,299.352 407.123,205.481 291.741,205.481 z M291.741,610.501 C183.795,610.501 95.983,522.681 95.983,414.741 C95.983,306.801 183.795,218.983 291.741,218.983 C399.687,218.983 487.499,306.802 487.499,414.741 C487.499,522.68 399.687,610.501 291.741,610.501 z M253.055,484.906 L187.795,419.649 L178.248,429.191 L253.055,503.998 L404.65,352.41 L395.105,342.865 L253.055,484.906 z" fill="#FFFFFF"/>
  </g>
  <defs/>
</svg>
