<?xml version="1.0" encoding="UTF-8"?>
<!DOCTYPE svg PUBLIC "-//W3C//DTD SVG 1.1//EN" "http://www.w3.org/Graphics/SVG/1.1/DTD/svg11.dtd">
<svg version="1.1" xmlns="http://www.w3.org/2000/svg" xmlns:xlink="http://www.w3.org/1999/xlink" x="0px" y="0px" width="419" height="419" viewBox="0, 0, 419, 419">
  <g id="Layer 1">
    <path d="M209.26,0 C93.878,0 0,93.871 0,209.26 C0,324.649 93.878,418.52 209.26,418.52 C324.642,418.52 418.52,324.649 418.52,209.26 C418.52,93.871 324.642,0 209.26,0 z M209.26,405.02 C101.314,405.02 13.502,317.2 13.502,209.26 C13.502,101.32 101.314,13.502 209.26,13.502 C317.206,13.502 405.018,101.321 405.018,209.26 C405.018,317.199 317.206,405.02 209.26,405.02 z M170.574,279.425 L105.314,214.168 L95.767,223.71 L170.574,298.517 L322.169,146.929 L312.624,137.384 L170.574,279.425 z" fill="#444444"/>
  </g>
  <defs/>
</svg>
