<?xml version="1.0" encoding="UTF-8"?>
<!DOCTYPE svg PUBLIC "-//W3C//DTD SVG 1.1//EN" "http://www.w3.org/Graphics/SVG/1.1/DTD/svg11.dtd">
<svg version="1.1" xmlns="http://www.w3.org/2000/svg" xmlns:xlink="http://www.w3.org/1999/xlink" x="0px" y="0px" width="466" height="450" viewBox="0, 0, 466, 450">
  <g id="Layer 1">
    <path d="M312.684,447.481 C310.405,448.298 308.125,449.267 305.781,449.675 C296.844,451.258 291.113,446.689 291.062,437.631 C290.945,420.816 290.945,404.026 291.216,387.211 C291.513,367.869 291.062,348.784 276.199,332.836 C285.035,331.267 292.902,330.17 300.579,328.422 C351.512,316.838 377.964,285.019 381.338,232.188 C383.052,205.287 378.209,180.626 360.179,159.448 C358.891,157.962 358.827,154.575 359.432,152.406 C364.248,134.901 362.832,117.799 357.242,100.684 C355.864,96.41 353.559,95.096 349.323,95.37 C334.371,96.193 320.667,101.393 308.588,109.385 C296.946,117.136 286.103,118.82 272.272,115.681 C241.801,108.875 211.145,110.866 180.746,117.838 C177.307,118.647 172.677,117.563 169.522,115.739 C155.259,107.453 140.99,99.408 124.532,96.193 C111.801,93.737 110.694,94.363 107.32,106.553 C103.076,121.914 102.652,137.294 106.991,152.763 C107.61,155.009 106.965,158.614 105.445,160.272 C71.723,197.544 83.938,267.976 106.663,294.946 C124.331,315.908 147.802,325.336 173.862,330.236 C178.414,331.09 182.935,331.728 187.487,332.507 C183.585,342.56 180.076,352.052 176.102,361.392 C175.33,363.203 172.864,364.709 170.842,365.486 C145.284,375.31 123.314,368.089 108.691,345.112 C100.874,332.852 90.836,323.704 75.883,321.05 C75.407,320.974 74.917,320.705 74.485,320.769 C70.461,321.816 66.475,322.912 62.47,323.984 C64.723,327.098 66.321,331.268 69.341,333.144 C82.012,341.105 90.255,352.41 95.703,365.78 C104.26,386.728 120.873,396.093 142.464,397.905 C152.998,398.759 163.643,398.032 175.182,398.032 C175.182,411.046 175.658,425.897 174.982,440.683 C174.641,448.655 166.56,451.846 156.876,448.58 C131.202,439.879 107.397,427.402 86.837,409.872 C12.608,346.501 -16.009,266.418 8.666,172.672 C33.258,79.252 97.365,21.923 193.213,3.934 C325.834,-20.9 451.474,74.768 464.636,208.141 C475.002,313.292 412.556,411.683 312.684,447.481 z M187.643,331.996 C187.565,332.174 187.514,332.314 187.437,332.481 C187.668,332.532 187.906,332.557 188.158,332.607 C188.343,332.633 188.505,332.939 187.643,331.996 z" fill="#FFFFFF"/>
  </g>
  <defs/>
</svg>
