<?xml version="1.0" encoding="UTF-8"?>
<!DOCTYPE svg PUBLIC "-//W3C//DTD SVG 1.1//EN" "http://www.w3.org/Graphics/SVG/1.1/DTD/svg11.dtd">
<svg version="1.1" xmlns="http://www.w3.org/2000/svg" xmlns:xlink="http://www.w3.org/1999/xlink" x="0px" y="0px" width="595.28" height="841.89" viewBox="0, 0, 595.28, 841.89">
  <g id="Layer 1">
    <path d="M378.813,645.504 C376.534,646.321 374.254,647.29 371.91,647.698 C362.973,649.281 357.242,644.712 357.191,635.654 C357.074,618.839 357.074,602.049 357.345,585.234 C357.642,565.892 357.191,546.807 342.328,530.859 C351.164,529.29 359.031,528.193 366.708,526.445 C417.641,514.861 444.093,483.042 447.467,430.211 C449.181,403.31 444.338,378.649 426.308,357.471 C425.02,355.985 424.956,352.598 425.561,350.429 C430.377,332.924 428.961,315.822 423.371,298.707 C421.993,294.433 419.688,293.119 415.452,293.393 C400.5,294.216 386.796,299.416 374.717,307.408 C363.075,315.159 352.232,316.843 338.401,313.704 C307.93,306.898 277.274,308.889 246.875,315.861 C243.436,316.67 238.806,315.586 235.651,313.762 C221.388,305.476 207.119,297.431 190.661,294.216 C177.93,291.76 176.823,292.386 173.449,304.576 C169.205,319.937 168.781,335.317 173.12,350.786 C173.739,353.032 173.094,356.637 171.574,358.295 C137.852,395.567 150.067,465.999 172.792,492.969 C190.46,513.931 213.931,523.359 239.991,528.259 C244.543,529.113 249.064,529.751 253.616,530.53 C249.714,540.583 246.205,550.075 242.231,559.415 C241.459,561.226 238.993,562.732 236.971,563.509 C211.413,573.333 189.443,566.112 174.82,543.135 C167.003,530.875 156.965,521.727 142.012,519.073 C141.536,518.997 141.046,518.728 140.614,518.792 C136.59,519.839 132.604,520.935 128.599,522.007 C130.852,525.121 132.45,529.291 135.47,531.167 C148.141,539.128 156.384,550.433 161.832,563.803 C170.389,584.751 187.002,594.116 208.593,595.928 C219.127,596.782 229.772,596.055 241.311,596.055 C241.311,609.069 241.787,623.92 241.111,638.706 C240.77,646.678 232.689,649.869 223.005,646.603 C197.331,637.902 173.526,625.425 152.966,607.895 C78.737,544.524 50.12,464.441 74.795,370.695 C99.387,277.275 163.494,219.946 259.342,201.957 C391.963,177.123 517.603,272.791 530.765,406.164 C541.131,511.315 478.685,609.706 378.813,645.504 z M253.772,530.019 C253.694,530.197 253.643,530.337 253.566,530.504 C253.797,530.555 254.035,530.58 254.287,530.63 C254.472,530.656 254.634,530.962 253.772,530.019 z" fill="#FFFFFF"/>
  </g>
  <defs/>
</svg>
