<?xml version="1.0" encoding="UTF-8"?>
<!DOCTYPE svg PUBLIC "-//W3C//DTD SVG 1.1//EN" "http://www.w3.org/Graphics/SVG/1.1/DTD/svg11.dtd">
<svg version="1.1" xmlns="http://www.w3.org/2000/svg" xmlns:xlink="http://www.w3.org/1999/xlink" x="0px" y="0px" width="510.236" height="510.236" viewBox="0, 0, 510.236, 510.236">
  <g id="Layer 2">
    <path d="M247.398,489.352 C113.064,489.352 4.164,380.452 4.164,246.117 C4.164,111.783 113.064,2.883 247.398,2.883 C381.733,2.883 490.633,111.783 490.633,246.117 C490.633,380.452 381.733,489.352 247.398,489.352 z" fill-opacity="0" stroke="#FFFFFF" stroke-width="2"/>
    <path d="M63.936,182.396 L130.484,182.396 C144.291,182.396 155.484,193.589 155.484,207.396 L155.484,273.944 C155.484,287.751 144.291,298.944 130.484,298.944 L63.936,298.944 C50.129,298.944 38.936,287.751 38.936,273.944 L38.936,207.396 C38.936,193.589 50.129,182.396 63.936,182.396 z" fill-opacity="0" stroke="#FFFFFF" stroke-width="2"/>
    <path d="M213.411,182.396 L279.959,182.396 C293.766,182.396 304.959,193.589 304.959,207.396 L304.959,273.944 C304.959,287.751 293.766,298.944 279.959,298.944 L213.411,298.944 C199.604,298.944 188.411,287.751 188.411,273.944 L188.411,207.396 C188.411,193.589 199.604,182.396 213.411,182.396 z" fill-opacity="0" stroke="#FFFFFF" stroke-width="2"/>
    <path d="M363.69,182.649 L430.238,182.649 C444.045,182.649 455.238,193.842 455.238,207.649 L455.238,274.197 C455.238,288.004 444.045,299.197 430.238,299.197 L363.69,299.197 C349.883,299.197 338.69,288.004 338.69,274.197 L338.69,207.649 C338.69,193.842 349.883,182.649 363.69,182.649 z" fill-opacity="0" stroke="#FFFFFF" stroke-width="2"/>
    <path d="M38.936,139.812 L455.238,139.812" fill-opacity="0" stroke="#FFFFFF" stroke-width="2"/>
    <path d="M52.773,377.453 L433.285,377.453" fill-opacity="0" stroke="#FFFFFF" stroke-width="2"/>
    <path d="M247.217,228.758 L247.217,252.586" fill-opacity="0" stroke="#FFFFFF" stroke-width="2"/>
    <path d="M235.076,241.07 L258.467,241.07" fill-opacity="0" stroke="#FFFFFF" stroke-width="2"/>
    <path d="M229.366,208.172 L265.801,208.172 C274.085,208.172 280.801,214.888 280.801,223.172 L280.801,258.919 C280.801,267.204 274.085,273.919 265.801,273.919 L229.366,273.919 C221.082,273.919 214.366,267.204 214.366,258.919 L214.366,223.172 C214.366,214.888 221.082,208.172 229.366,208.172 z" fill-opacity="0" stroke="#FFFFFF" stroke-width="2"/>
    <path d="M74.91,257.221 C65.99,257.221 58.759,249.99 58.759,241.07 C58.759,232.15 65.99,224.919 74.91,224.919 C83.83,224.919 91.061,232.15 91.061,241.07 C91.061,249.99 83.83,257.221 74.91,257.221 z" fill-opacity="0" stroke="#FFFFFF" stroke-width="2"/>
    <path d="M119.388,257.221 C110.468,257.221 103.237,249.99 103.237,241.07 C103.237,232.15 110.468,224.919 119.388,224.919 C128.308,224.919 135.539,232.15 135.539,241.07 C135.539,249.99 128.308,257.221 119.388,257.221 z" fill-opacity="0" stroke="#FFFFFF" stroke-width="2"/>
    <path d="M55.79,241.07 L58.759,241.07" fill-opacity="0" stroke="#FFFFFF" stroke-width="2"/>
    <path d="M139.267,240.642 L136.235,240.642" fill-opacity="0" stroke="#FFFFFF" stroke-width="2"/>
    <path d="M91.9,239.412 C92.939,237.319 94.814,235.765 97.21,235.69 C99.652,235.694 101.422,237.388 102.52,239.412" fill-opacity="0" stroke="#FFFFFF" stroke-width="2"/>
    <path d="M370.688,219.28 L370.688,275.888" fill-opacity="0" stroke="#FFFFFF" stroke-width="2"/>
    <path d="M371.082,219.28 L397.738,219.28" fill-opacity="0" stroke="#FFFFFF" stroke-width="2"/>
    <path d="M397.737,219.28 L397.737,231.488" fill-opacity="0" stroke="#FFFFFF" stroke-width="2"/>
    <path d="M397.737,231.488 L410.337,231.488" fill-opacity="0" stroke="#FFFFFF" stroke-width="2"/>
    <path d="M371.351,276.024 L409.938,276.288" fill-opacity="0" stroke="#FFFFFF" stroke-width="2"/>
    <path d="M410.87,276.482 L410.87,232.288" fill-opacity="0" stroke="#FFFFFF" stroke-width="2"/>
    <path d="M398.289,219.727 L411.137,231.888" fill-opacity="0" stroke="#FFFFFF" stroke-width="2"/>
    <path d="M411.755,206.009 L411.755,219.088" fill-opacity="0" stroke="#FFFFFF" stroke-width="2"/>
    <path d="M412.647,219.087 L424.337,219.087" fill-opacity="0" stroke="#FFFFFF" stroke-width="2"/>
    <path d="M424.245,218.344 L424.245,262.688" fill-opacity="0" stroke="#FFFFFF" stroke-width="2"/>
    <path d="M424.096,262.667 L411.938,262.667" fill-opacity="0" stroke="#FFFFFF" stroke-width="2"/>
    <path d="M384.56,218.589 L384.138,205.888" fill-opacity="0" stroke="#FFFFFF" stroke-width="2"/>
    <path d="M384.114,205.803 L411.338,205.803" fill-opacity="0" stroke="#FFFFFF" stroke-width="2"/>
    <path d="M412.004,207.207 L424.193,218.495" fill-opacity="0" stroke="#FFFFFF" stroke-width="2"/>
  </g>
  <defs/>
</svg>
