<?xml version="1.0" encoding="UTF-8"?>
<!DOCTYPE svg PUBLIC "-//W3C//DTD SVG 1.1//EN" "http://www.w3.org/Graphics/SVG/1.1/DTD/svg11.dtd">
<svg version="1.1" xmlns="http://www.w3.org/2000/svg" xmlns:xlink="http://www.w3.org/1999/xlink" x="0px" y="0px" width="394" height="394" viewBox="0, 0, 394, 394">
  <g id="Layer 1">
    <path d="M251.021,181.21 L242.808,181.21 L242.808,156.219 C242.808,130.67 222.041,109.899 196.492,109.899 C170.954,109.899 150.184,130.67 150.184,156.219 L150.184,181.21 L141.978,181.21 C137.258,181.21 133.434,185.04 133.434,189.761 L133.434,274.579 C133.434,279.291 137.258,283.123 141.978,283.123 L251.028,283.123 C255.741,283.123 259.573,279.292 259.573,274.579 L259.573,189.761 C259.565,185.047 255.741,181.21 251.021,181.21 z M225.721,181.21 L225.714,181.21 L167.278,181.21 L167.278,156.219 C167.278,140.103 180.379,126.994 196.492,126.994 C212.608,126.994 225.72,140.102 225.72,156.219 L225.72,181.21 z M196.507,0 C88.153,0 0,88.154 0,196.505 C0,304.854 88.153,393.007 196.507,393.007 C304.854,393.007 393.007,304.855 393.007,196.505 C392.999,88.154 304.854,0 196.507,0 z M196.507,361.34 C105.612,361.34 31.671,287.402 31.671,196.505 C31.671,105.617 105.613,31.675 196.507,31.675 C287.387,31.675 361.333,105.617 361.333,196.505 C361.332,287.394 287.387,361.34 196.507,361.34 z" fill="#FFFFFF"/>
  </g>
  <defs/>
</svg>
