<?xml version="1.0" encoding="UTF-8"?>
<!DOCTYPE svg PUBLIC "-//W3C//DTD SVG 1.1//EN" "http://www.w3.org/Graphics/SVG/1.1/DTD/svg11.dtd">
<svg version="1.1" xmlns="http://www.w3.org/2000/svg" xmlns:xlink="http://www.w3.org/1999/xlink" x="0px" y="0px" width="595.28" height="841.89" viewBox="0, 0, 595.28, 841.89">
  <g id="Layer 1">
    <path d="M354.017,407.206 L345.804,407.206 L345.804,382.215 C345.804,356.666 325.037,335.895 299.488,335.895 C273.95,335.895 253.18,356.666 253.18,382.215 L253.18,407.206 L244.974,407.206 C240.254,407.206 236.43,411.036 236.43,415.757 L236.43,500.575 C236.43,505.287 240.254,509.119 244.974,509.119 L354.024,509.119 C358.737,509.119 362.569,505.288 362.569,500.575 L362.569,415.757 C362.561,411.043 358.737,407.206 354.017,407.206 z M328.717,407.206 L328.71,407.206 L270.274,407.206 L270.274,382.215 C270.274,366.099 283.375,352.99 299.488,352.99 C315.604,352.99 328.716,366.098 328.716,382.215 L328.716,407.206 z M299.503,225.996 C191.149,225.996 102.996,314.15 102.996,422.501 C102.996,530.85 191.149,619.003 299.503,619.003 C407.85,619.003 496.003,530.851 496.003,422.501 C495.995,314.15 407.85,225.996 299.503,225.996 z M299.503,587.336 C208.608,587.336 134.667,513.398 134.667,422.501 C134.667,331.613 208.609,257.671 299.503,257.671 C390.383,257.671 464.329,331.613 464.329,422.501 C464.328,513.39 390.383,587.336 299.503,587.336 z" fill="#FFFFFF"/>
  </g>
  <defs/>
</svg>
