<?xml version="1.0" encoding="UTF-8"?>
<!DOCTYPE svg PUBLIC "-//W3C//DTD SVG 1.1//EN" "http://www.w3.org/Graphics/SVG/1.1/DTD/svg11.dtd">
<svg version="1.1" xmlns="http://www.w3.org/2000/svg" xmlns:xlink="http://www.w3.org/1999/xlink" x="0px" y="0px" width="595.28" height="841.89" viewBox="0, 0, 595.28, 841.89">
  <g id="Layer 1">
    <path d="M100.913,279.543 C93.774,279.543 89.313,280.127 87.528,281.296 C85.743,282.465 85.446,283.78 86.635,285.241 C87.826,286.702 90.8,289.186 95.558,292.692 C97.938,294.445 99.722,295.907 100.912,297.075 L302.571,447.848 L504.23,297.952 L508.692,293.568 C513.451,290.062 516.574,287.578 518.061,286.117 C519.548,284.657 519.399,283.196 517.615,281.734 C515.829,280.272 511.369,279.543 504.23,279.543 L100.913,279.543 z M74.144,314.606 L74.144,537.26 C74.144,543.689 76.821,550.262 82.175,556.984 C87.53,563.705 92.883,567.064 98.237,567.064 L506.908,567.064 C512.263,567.064 517.616,563.704 522.97,556.984 C528.324,550.263 531,543.688 531,537.26 L531,314.607 L302.572,486.418 L74.144,314.606 L74.144,314.606 z" fill="#FFFFFF"/>
  </g>
  <defs/>
</svg>
