<?xml version="1.0" encoding="UTF-8"?>
<!DOCTYPE svg PUBLIC "-//W3C//DTD SVG 1.1//EN" "http://www.w3.org/Graphics/SVG/1.1/DTD/svg11.dtd">
<svg version="1.1" xmlns="http://www.w3.org/2000/svg" xmlns:xlink="http://www.w3.org/1999/xlink" x="0px" y="0px" width="457" height="288" viewBox="0, 0, 457, 288">
  <g id="Layer 1">
    <path d="M26.769,0 C19.63,0 15.169,0.584 13.384,1.753 C11.599,2.922 11.302,4.237 12.491,5.698 C13.682,7.159 16.656,9.643 21.414,13.149 C23.794,14.902 25.578,16.364 26.768,17.532 L228.427,168.305 L430.086,18.409 L434.548,14.025 C439.307,10.519 442.43,8.035 443.917,6.574 C445.404,5.114 445.255,3.653 443.471,2.191 C441.685,0.729 437.225,0 430.086,0 L26.769,0 z M0,35.063 L0,257.717 C0,264.146 2.677,270.719 8.031,277.441 C13.386,284.162 18.739,287.521 24.093,287.521 L432.764,287.521 C438.119,287.521 443.472,284.161 448.826,277.441 C454.18,270.72 456.856,264.145 456.856,257.717 L456.856,35.064 L228.428,206.875 L0,35.063 L0,35.063 z" fill="#FFFFFF"/>
  </g>
  <defs/>
</svg>
