<?xml version="1.0" encoding="UTF-8"?>
<!DOCTYPE svg PUBLIC "-//W3C//DTD SVG 1.1//EN" "http://www.w3.org/Graphics/SVG/1.1/DTD/svg11.dtd">
<svg version="1.1" xmlns="http://www.w3.org/2000/svg" xmlns:xlink="http://www.w3.org/1999/xlink" x="0px" y="0px" width="310" height="287" viewBox="0, 0, 310, 287">
  <g id="Layer 2">
    <path d="M9.5,5.5 L297.5,5.5" fill-opacity="0" stroke="#FFFFFF" stroke-width="1"/>
    <path d="M292.613,5.5 L292.613,209.5" fill-opacity="0" stroke="#FFFFFF" stroke-width="1"/>
    <path d="M1.637,209.5 L311.406,209.5" fill-opacity="0" stroke="#FFFFFF" stroke-width="1"/>
    <path d="M6.805,219.242 L6.805,1.805" fill-opacity="0" stroke="#FFFFFF" stroke-width="1"/>
    <path d="M25.117,30.305 L59.406,30.305" fill-opacity="0" stroke="#FFFFFF" stroke-width="1"/>
    <path d="M261.891,29.619 L278.686,29.619" fill-opacity="0" stroke="#FFFFFF" stroke-width="1"/>
    <path d="M22.205,63.656 L273.686,63.656" fill-opacity="0" stroke="#FFFFFF" stroke-width="1"/>
    <path d="M22.205,97.807 L22.205,130.496" fill-opacity="0" stroke="#FFFFFF" stroke-width="1"/>
    <path d="M19.837,130.822 L280.186,130.744" fill-opacity="0" stroke="#FFFFFF" stroke-width="1"/>
    <path d="M276.473,92.479 L276.473,133.996" fill-opacity="0" stroke="#FFFFFF" stroke-width="1"/>
    <path d="M278.943,97.693 L10.686,97.693" fill-opacity="0" stroke="#FFFFFF" stroke-width="1"/>
    <path d="M149.496,94.465 L149.496,132.996" fill-opacity="0" stroke="#FFFFFF" stroke-width="1"/>
    <path d="M110.746,112.918 L58.186,112.918" fill-opacity="0" stroke="#FFFFFF" stroke-width="1"/>
    <path d="M192.674,114.033 L235.686,114.033" fill-opacity="0" stroke="#FFFFFF" stroke-width="1"/>
    <path d="M173.492,105.592 L173.492,120.496" fill-opacity="0" stroke="#FFFFFF" stroke-width="1"/>
    <path d="M174.734,120.703 L157.186,120.703" fill-opacity="0" stroke="#FFFFFF" stroke-width="1"/>
    <path d="M160.252,120.703 L160.252,103.996" fill-opacity="0" stroke="#FFFFFF" stroke-width="1"/>
    <path d="M157.523,104.219 L177.686,104.219" fill-opacity="0" stroke="#FFFFFF" stroke-width="1"/>
    <path d="M162.338,113.262 L165.186,115.996" fill-opacity="0" stroke="#FFFFFF" stroke-width="1"/>
    <path d="M165.08,115.746 L170.186,109.996" fill-opacity="0" stroke="#FFFFFF" stroke-width="1"/>
    <path d="M73.22,72.238 C67.38,72.238 62.646,67.504 62.646,61.665 C62.646,55.826 67.38,51.092 73.22,51.092 C79.059,51.092 83.793,55.826 83.793,61.665 C83.793,67.504 79.059,72.238 73.22,72.238 z" fill-opacity="0" stroke="#FFFFFF" stroke-width="1"/>
    <path d="M26.221,155.211 L26.221,188.996" fill-opacity="0" stroke="#FFFFFF" stroke-width="1"/>
    <path d="M17.422,189.891 L279.186,189.891" fill-opacity="0" stroke="#FFFFFF" stroke-width="1"/>
    <path d="M276.73,192.891 L276.73,153.496" fill-opacity="0" stroke="#FFFFFF" stroke-width="1"/>
    <path d="M276.23,158.824 L23.186,158.824" fill-opacity="0" stroke="#FFFFFF" stroke-width="1"/>
    <path d="M80.41,172.922 L216.686,172.922" fill-opacity="0" stroke="#FFFFFF" stroke-width="1"/>
    <path d="M267.732,209.066 L252.686,221.496" fill-opacity="0" stroke="#FFFFFF" stroke-width="1"/>
    <path d="M252.736,221.723 L241.186,206.996" fill-opacity="0" stroke="#FFFFFF" stroke-width="1"/>
    <path d="M22.963,243.746 L22.963,288.496" fill-opacity="0" stroke="#FFFFFF" stroke-width="1"/>
    <path d="M19.977,286.225 L277.186,286.225" fill-opacity="0" stroke="#FFFFFF" stroke-width="1"/>
    <path d="M277.973,288.467 L277.973,242.496" fill-opacity="0" stroke="#FFFFFF" stroke-width="1"/>
    <path d="M282.93,241.904 L20.686,241.904" fill-opacity="0" stroke="#FFFFFF" stroke-width="1"/>
    <path d="M229.611,239.918 L229.611,285.996" fill-opacity="0" stroke="#FFFFFF" stroke-width="1"/>
    <path d="M172.908,268.385 L122.186,268.385" fill-opacity="0" stroke="#FFFFFF" stroke-width="1"/>
    <path d="M245.793,258.215 L263.186,257.996" fill-opacity="0" stroke="#FFFFFF" stroke-width="1"/>
    <path d="M263.02,257.844 L263.02,271.996" fill-opacity="0" stroke="#FFFFFF" stroke-width="1"/>
    <path d="M263.02,271.842 L247.186,271.842" fill-opacity="0" stroke="#FFFFFF" stroke-width="1"/>
    <path d="M247.279,271.842 L247.279,259.496" fill-opacity="0" stroke="#FFFFFF" stroke-width="1"/>
  </g>
  <defs/>
</svg>
