<?xml version="1.0" encoding="UTF-8"?>
<!DOCTYPE svg PUBLIC "-//W3C//DTD SVG 1.1//EN" "http://www.w3.org/Graphics/SVG/1.1/DTD/svg11.dtd">
<svg version="1.1" xmlns="http://www.w3.org/2000/svg" xmlns:xlink="http://www.w3.org/1999/xlink" x="0px" y="0px" width="64" height="64" viewBox="0, 0, 64, 64">
  <g id="Layer 1">
    <path d="M44.789,5.983 L37.718,13.054 L17.769,33.004 L9.813,53.687 L30.496,45.732 L51.859,24.369 L51.859,24.369 L57.516,18.712 L44.789,5.983 z M13.296,50.204 L15.078,45.569 L17.93,48.421 L13.296,50.204 z M29.382,44.017 L19.972,47.636 L15.863,43.527 L19.005,35.355 L23.574,39.924 L24.988,38.51 L20.038,33.56 L33.474,20.125 L37.009,23.661 L38.423,22.247 L34.888,18.711 L36.302,17.297 L39.838,20.833 L41.252,19.419 L37.717,15.883 L39.131,14.469 L45.495,20.833 L27.818,38.511 L29.232,39.925 L46.91,22.247 L49.031,24.368 L29.382,44.017 z M50.445,22.954 L40.546,13.055 L44.789,8.812 L54.688,18.711 L50.445,22.954 z" fill="#FFFFFF"/>
  </g>
  <defs/>
</svg>
