<?xml version="1.0" encoding="UTF-8"?>
<!DOCTYPE svg PUBLIC "-//W3C//DTD SVG 1.1//EN" "http://www.w3.org/Graphics/SVG/1.1/DTD/svg11.dtd">
<svg version="1.1" xmlns="http://www.w3.org/2000/svg" xmlns:xlink="http://www.w3.org/1999/xlink" x="0px" y="0px" width="595.28" height="841.89" viewBox="0, 0, 595.28, 841.89">
  <g id="Layer 1">
    <path d="M301.004,587.001 L262.535,587.001 C256.748,587.001 254.728,587.015 235.007,537.136 L219.773,530.818 C178.268,550.038 173.354,550.038 171.713,550.038 L168.536,550.038 L165.829,547.663 L138.558,520.431 C134.413,516.208 132.975,514.737 154.313,465.515 L148.105,450.51 C98,432.187 98,430.067 98,424.023 L98,385.528 C98,379.498 98,377.593 147.937,357.885 L154.147,342.851 C131.577,294.376 133.128,292.871 137.582,288.595 L166.908,259.247 L170.548,259.13 C174.978,259.13 191.403,265.247 219.413,277.319 L234.602,271.024 C252.887,220.954 255.129,220.96 260.898,220.96 L299.367,220.96 C305.133,220.96 307.154,220.966 326.883,270.854 L342.132,277.128 C383.575,257.935 388.554,257.935 390.213,257.935 L393.365,257.935 L396.078,260.268 L423.346,287.456 C427.488,291.729 428.911,293.192 407.573,342.433 L413.8,357.517 C463.966,375.762 463.966,377.884 463.966,383.934 L463.966,422.385 C463.966,428.275 463.966,430.346 413.962,450.069 L407.798,465.118 C430.246,513.379 428.769,514.895 424.57,519.214 L395.02,548.745 L391.351,548.853 C386.945,548.853 370.56,542.725 342.584,530.638 L327.309,536.942 C308.972,587.001 306.894,587.001 301.004,587.001 z M266.534,571.106 L296.873,571.106 C300.362,563.864 307.887,544.656 313.908,528.111 L315.125,524.818 L342.752,513.431 L345.723,514.718 C362.189,521.889 381.65,529.825 389.231,532.27 L410.557,510.981 C407.85,503.319 399.638,484.571 392.232,468.758 L390.734,465.542 L402.164,437.686 L405.278,436.463 C421.912,429.928 441.18,421.859 448.38,418.186 L448.38,388.282 C441.093,384.79 421.899,377.334 405.359,371.348 L402.121,370.166 L390.615,342.288 L391.988,339.145 C399.064,322.841 406.938,303.607 409.459,295.86 L388.083,274.529 C381.182,276.987 361.865,285.438 345.567,293.029 L342.529,294.452 L314.908,283.084 L313.671,279.947 C307.139,263.313 299.028,244.022 295.365,236.88 L265.049,236.88 C261.548,244.106 254.047,263.319 248.033,279.855 L246.839,283.128 L219.289,294.557 L216.318,293.258 C199.814,286.104 180.317,278.174 172.705,275.735 L151.425,297.035 C154.095,304.683 162.33,323.42 169.709,339.233 L171.223,342.455 L159.736,370.296 L156.643,371.515 C140.037,378.044 120.8,386.103 113.598,389.768 L113.598,419.713 C120.882,423.216 140.056,430.692 156.584,436.703 L159.8,437.894 L171.306,465.682 L169.933,468.821 C162.851,485.113 154.986,504.313 152.456,512.051 L173.878,533.45 C180.76,530.972 200.057,522.514 216.376,514.924 L219.431,513.497 L246.999,524.935 L248.231,528.069 C254.785,544.701 262.875,563.959 266.534,571.106 z M280.982,468.043 C245.707,468.043 216.981,439.301 216.981,403.978 C216.981,368.677 245.7,339.957 280.982,339.957 C316.241,339.957 344.893,368.682 344.893,403.978 C344.893,439.301 316.241,468.043 280.982,468.043 z M280.982,355.863 C254.28,355.863 232.576,377.45 232.576,403.978 C232.576,430.526 254.274,452.128 280.982,452.128 C307.636,452.128 329.319,430.526 329.319,403.978 C329.319,377.45 307.637,355.863 280.982,355.863 z" fill="#FFFFFF"/>
  </g>
  <defs/>
</svg>
