<?xml version="1.0" encoding="UTF-8"?>
<!DOCTYPE svg PUBLIC "-//W3C//DTD SVG 1.1//EN" "http://www.w3.org/Graphics/SVG/1.1/DTD/svg11.dtd">
<svg version="1.1" xmlns="http://www.w3.org/2000/svg" xmlns:xlink="http://www.w3.org/1999/xlink" x="0px" y="0px" width="366" height="367" viewBox="0, 0, 366, 367">
  <g id="Layer 1">
    <path d="M203.004,366.041 L164.535,366.041 C158.748,366.041 156.728,366.055 137.007,316.176 L121.773,309.858 C80.268,329.078 75.354,329.078 73.713,329.078 L70.536,329.078 L67.829,326.703 L40.558,299.471 C36.413,295.248 34.975,293.777 56.313,244.555 L50.105,229.55 C0,211.227 0,209.107 0,203.063 L0,164.568 C0,158.538 0,156.633 49.937,136.925 L56.147,121.891 C33.577,73.416 35.128,71.911 39.582,67.635 L68.908,38.287 L72.548,38.17 C76.978,38.17 93.403,44.287 121.413,56.359 L136.602,50.064 C154.887,-0.006 157.129,0 162.898,0 L201.367,0 C207.133,0 209.154,0.006 228.883,49.894 L244.132,56.168 C285.575,36.975 290.554,36.975 292.213,36.975 L295.365,36.975 L298.078,39.308 L325.346,66.496 C329.488,70.769 330.911,72.232 309.573,121.473 L315.8,136.557 C365.966,154.802 365.966,156.924 365.966,162.974 L365.966,201.425 C365.966,207.315 365.966,209.386 315.962,229.109 L309.798,244.158 C332.246,292.419 330.769,293.935 326.57,298.254 L297.02,327.785 L293.351,327.893 C288.945,327.893 272.56,321.765 244.584,309.678 L229.309,315.982 C210.972,366.041 208.894,366.041 203.004,366.041 z M168.534,350.146 L198.873,350.146 C202.362,342.904 209.887,323.696 215.908,307.151 L217.125,303.858 L244.752,292.471 L247.723,293.758 C264.189,300.929 283.65,308.865 291.231,311.31 L312.557,290.021 C309.85,282.359 301.638,263.611 294.232,247.798 L292.734,244.582 L304.164,216.726 L307.278,215.503 C323.912,208.968 343.18,200.899 350.38,197.226 L350.38,167.322 C343.093,163.83 323.899,156.374 307.359,150.388 L304.121,149.206 L292.615,121.328 L293.988,118.185 C301.064,101.881 308.938,82.647 311.459,74.9 L290.083,53.569 C283.182,56.027 263.865,64.478 247.567,72.069 L244.529,73.492 L216.908,62.124 L215.671,58.987 C209.139,42.353 201.028,23.062 197.365,15.92 L167.049,15.92 C163.548,23.146 156.047,42.359 150.033,58.895 L148.839,62.168 L121.289,73.597 L118.318,72.298 C101.814,65.144 82.317,57.214 74.705,54.775 L53.425,76.075 C56.095,83.723 64.33,102.46 71.709,118.273 L73.223,121.495 L61.736,149.336 L58.643,150.555 C42.037,157.084 22.8,165.143 15.598,168.808 L15.598,198.753 C22.882,202.256 42.056,209.732 58.584,215.743 L61.8,216.934 L73.306,244.722 L71.933,247.861 C64.851,264.153 56.986,283.353 54.456,291.091 L75.878,312.49 C82.76,310.012 102.057,301.554 118.376,293.964 L121.431,292.537 L148.999,303.975 L150.231,307.109 C156.785,323.741 164.875,342.999 168.534,350.146 z M182.982,247.083 C147.707,247.083 118.981,218.341 118.981,183.018 C118.981,147.717 147.7,118.997 182.982,118.997 C218.241,118.997 246.893,147.722 246.893,183.018 C246.893,218.341 218.241,247.083 182.982,247.083 z M182.982,134.903 C156.28,134.903 134.576,156.49 134.576,183.018 C134.576,209.566 156.274,231.168 182.982,231.168 C209.636,231.168 231.319,209.566 231.319,183.018 C231.319,156.49 209.637,134.903 182.982,134.903 z" fill="#FFFFFF"/>
  </g>
  <defs/>
</svg>
