<?xml version="1.0" encoding="UTF-8"?>
<!DOCTYPE svg PUBLIC "-//W3C//DTD SVG 1.1//EN" "http://www.w3.org/Graphics/SVG/1.1/DTD/svg11.dtd">
<svg version="1.1" xmlns="http://www.w3.org/2000/svg" xmlns:xlink="http://www.w3.org/1999/xlink" x="0px" y="0px" width="126" height="126" viewBox="0, 0, 126, 126">
  <g id="Layer 1">
    <path d="M102.328,48.928 L99.879,48.928 L99.879,37.11 C99.879,37.036 99.867,36.962 99.858,36.887 C99.854,36.418 99.704,35.957 99.383,35.592 L79.717,13.127 C79.711,13.121 79.705,13.119 79.701,13.113 C79.584,12.982 79.447,12.873 79.303,12.779 C79.26,12.75 79.217,12.726 79.172,12.701 C79.047,12.633 78.914,12.576 78.777,12.535 C78.74,12.525 78.707,12.51 78.67,12.5 C78.522,12.465 78.367,12.443 78.211,12.443 L29.879,12.443 C27.672,12.443 25.879,14.238 25.879,16.443 L25.879,48.927 L23.43,48.927 C20.273,48.927 17.713,51.486 17.713,54.644 L17.713,84.374 C17.713,87.53 20.273,90.091 23.43,90.091 L25.879,90.091 L25.879,110.443 C25.879,112.648 27.672,114.443 29.879,114.443 L95.879,114.443 C98.084,114.443 99.879,112.648 99.879,110.443 L99.879,90.092 L102.328,90.092 C105.485,90.092 108.045,87.531 108.045,84.375 L108.045,54.645 C108.045,51.487 105.485,48.928 102.328,48.928 z M29.879,16.444 L76.211,16.444 L76.211,36.909 C76.211,38.014 77.107,38.909 78.211,38.909 L95.879,38.909 L95.879,48.929 L29.879,48.929 L29.879,16.444 z M74.633,54.234 L64.572,84.102 L56.685,84.102 L47.113,54.234 L54.514,54.234 L58.147,66.863 C59.167,70.408 60.097,73.82 60.806,77.542 L60.939,77.542 C61.691,73.952 62.622,70.408 63.641,66.996 L67.453,54.233 L74.633,54.233 z M24.556,82.728 L25.929,77.144 C27.746,78.074 30.538,79.005 33.418,79.005 C36.52,79.005 38.16,77.721 38.16,75.771 C38.16,73.91 36.741,72.846 33.151,71.561 C28.188,69.833 24.954,67.086 24.954,62.744 C24.954,57.647 29.208,53.748 36.253,53.748 C39.621,53.748 42.103,54.456 43.875,55.254 L42.37,60.705 C41.173,60.128 39.047,59.287 36.121,59.287 C33.197,59.287 31.778,60.617 31.778,62.167 C31.778,64.073 33.461,64.916 37.318,66.377 C42.59,68.327 45.072,71.074 45.072,75.283 C45.072,80.291 41.218,84.545 33.018,84.545 C29.607,84.545 26.238,83.659 24.556,82.728 z M95.879,109.36 L29.879,109.36 L29.879,90.092 L95.879,90.092 L95.879,109.36 z M102.418,82.728 C100.336,83.436 96.393,84.413 92.449,84.413 C86.998,84.413 83.054,83.038 80.306,80.381 C77.558,77.811 76.053,73.91 76.096,69.524 C76.142,59.597 83.365,53.925 93.158,53.925 C97.012,53.925 99.982,54.679 101.444,55.387 L100.025,60.795 C98.385,60.086 96.349,59.508 93.069,59.508 C87.44,59.508 83.187,62.699 83.187,69.169 C83.187,75.329 87.041,78.962 92.582,78.962 C94.133,78.962 95.373,78.784 95.904,78.519 L95.904,72.27 L91.298,72.27 L91.298,66.997 L102.418,66.997 L102.418,82.728 z" fill="#FFFFFF"/>
  </g>
  <defs/>
</svg>
