<?xml version="1.0" encoding="UTF-8"?>
<!DOCTYPE svg PUBLIC "-//W3C//DTD SVG 1.1//EN" "http://www.w3.org/Graphics/SVG/1.1/DTD/svg11.dtd">
<svg version="1.1" xmlns="http://www.w3.org/2000/svg" xmlns:xlink="http://www.w3.org/1999/xlink" x="0px" y="0px" width="445" height="370" viewBox="0, 0, 445, 370">
  <g id="Layer 1">
    <path d="M444.358,43.809 C441.386,50.06 435.854,57.957 427.763,67.5 C419.672,77.042 409.682,85.432 397.792,92.67 C398.122,95.303 398.369,97.77 398.535,100.073 C398.701,102.377 398.783,104.844 398.783,107.476 C398.783,121.295 397.215,136.431 394.078,152.882 C390.941,169.334 386.068,186.032 379.464,202.978 C372.859,219.923 364.521,236.704 354.447,253.32 C344.374,269.936 332.402,285.318 318.531,299.466 C304.661,313.615 288.891,326.12 271.222,336.978 C253.553,347.836 233.821,355.897 212.024,361.16 C186.595,366.755 161.165,369.551 135.735,369.551 C124.836,369.551 113.525,368.975 101.801,367.824 C90.077,366.671 78.353,364.534 66.629,361.408 C54.905,358.281 43.347,354.087 31.952,348.822 C20.558,343.559 9.908,336.812 0,328.587 C25.76,332.207 50.116,330.148 73.069,322.417 C96.021,314.685 116.911,303.745 135.735,289.596 C131.441,289.596 125.745,289.185 118.644,288.363 C111.544,287.539 103.948,285.072 95.857,280.96 C87.766,276.845 79.592,270.513 71.336,261.957 C63.08,253.404 55.814,241.394 49.54,225.928 C51.521,226.586 54.245,226.997 57.714,227.163 C61.181,227.327 64.897,227.245 68.86,226.913 C72.823,226.584 76.704,226.174 80.502,225.682 C84.3,225.188 87.685,224.613 90.658,223.952 C73.485,218.689 60.027,211.696 50.284,202.977 C40.542,194.257 33.359,185.29 28.735,176.079 C24.112,166.865 21.222,158.146 20.066,149.921 C18.91,141.695 18.332,135.277 18.332,130.672 C22.626,133.303 28.9,136.101 37.157,139.062 C45.413,142.023 52.844,143.339 59.449,143.01 C45.909,131.823 36.083,120.718 29.973,109.696 C23.863,98.673 20.231,87.98 19.074,77.615 C17.918,67.25 18.497,57.133 20.808,47.262 C23.12,37.391 26.257,27.849 30.22,18.636 C48.385,39.036 66.466,55.57 84.465,68.238 C102.464,80.906 119.637,90.695 135.985,97.604 C152.333,104.514 167.607,109.12 181.808,111.423 C196.009,113.727 208.393,114.878 218.962,114.878 C216.98,101.717 216.897,89.214 218.712,77.369 C220.528,65.523 224.328,54.666 230.106,44.795 C235.886,34.924 243.563,26.451 253.141,19.377 C262.718,12.302 274.112,6.956 287.323,3.336 C303.505,-1.27 319.028,-1.106 333.888,3.83 C348.75,8.766 361.465,17.321 372.032,29.495 C376.656,29.165 383.922,27.685 393.831,25.053 C403.737,22.42 416.123,16.663 430.983,7.779 C429.993,11.068 428.424,15.099 426.278,19.87 C424.131,24.642 421.405,29.495 418.103,34.43 C414.8,39.366 410.838,44.136 406.214,48.743 C401.591,53.349 396.306,57.133 390.362,60.094 C395.316,59.108 400.765,57.956 406.709,56.64 C411.662,55.323 417.443,53.596 424.047,51.457 C430.652,49.321 437.423,46.77 444.358,43.809 z" fill="#FFFFFF"/>
  </g>
  <defs/>
</svg>
