<?xml version="1.0" encoding="UTF-8"?>
<!DOCTYPE svg PUBLIC "-//W3C//DTD SVG 1.1//EN" "http://www.w3.org/Graphics/SVG/1.1/DTD/svg11.dtd">
<svg version="1.1" xmlns="http://www.w3.org/2000/svg" xmlns:xlink="http://www.w3.org/1999/xlink" x="0px" y="0px" width="595.28" height="841.89" viewBox="0, 0, 595.28, 841.89">
  <g id="Layer 1">
    <path d="M517.34,277.665 C514.368,283.916 508.836,291.813 500.745,301.356 C492.654,310.898 482.664,319.288 470.774,326.526 C471.104,329.159 471.351,331.626 471.517,333.929 C471.683,336.233 471.765,338.7 471.765,341.332 C471.765,355.151 470.197,370.287 467.06,386.738 C463.923,403.19 459.05,419.888 452.446,436.834 C445.841,453.779 437.503,470.56 427.429,487.176 C417.356,503.793 405.384,519.174 391.513,533.323 C377.643,547.471 361.873,559.976 344.204,570.834 C326.535,581.692 306.803,589.753 285.006,595.017 C259.577,600.612 234.147,603.407 208.717,603.407 C197.818,603.407 186.507,602.831 174.783,601.68 C163.059,600.527 151.335,598.39 139.611,595.264 C127.887,592.138 116.329,587.943 104.934,582.678 C93.54,577.415 82.89,570.669 72.982,562.443 C98.742,566.063 123.098,564.005 146.051,556.273 C169.003,548.541 189.893,537.601 208.717,523.453 C204.423,523.453 198.727,523.041 191.626,522.219 C184.526,521.395 176.93,518.928 168.839,514.816 C160.748,510.702 152.574,504.369 144.318,495.814 C136.062,487.26 128.796,475.25 122.522,459.785 C124.503,460.442 127.227,460.854 130.696,461.019 C134.163,461.183 137.879,461.101 141.842,460.77 C145.805,460.44 149.686,460.03 153.484,459.538 C157.282,459.044 160.667,458.469 163.64,457.809 C146.467,452.545 133.009,445.552 123.266,436.833 C113.524,428.113 106.341,419.147 101.717,409.935 C97.094,400.721 94.204,392.002 93.048,383.777 C91.892,375.551 91.314,369.134 91.314,364.528 C95.608,367.16 101.882,369.957 110.139,372.918 C118.395,375.879 125.826,377.195 132.431,376.866 C118.891,365.679 109.065,354.574 102.955,343.552 C96.845,332.529 93.213,321.836 92.056,311.471 C90.9,301.106 91.479,290.989 93.79,281.118 C96.102,271.247 99.239,261.705 103.202,252.492 C121.367,272.892 139.448,289.426 157.447,302.094 C175.446,314.762 192.619,324.551 208.967,331.46 C225.315,338.37 240.589,342.976 254.79,345.279 C268.991,347.583 281.375,348.734 291.944,348.734 C289.962,335.573 289.879,323.07 291.694,311.225 C293.51,299.379 297.31,288.522 303.088,278.651 C308.868,268.78 316.545,260.307 326.123,253.233 C335.7,246.158 347.094,240.812 360.305,237.192 C376.487,232.586 392.01,232.75 406.87,237.686 C421.732,242.622 434.447,251.177 445.014,263.351 C449.638,263.021 456.904,261.541 466.813,258.909 C476.719,256.276 489.105,250.519 503.965,241.635 C502.975,244.924 501.406,248.955 499.26,253.726 C497.113,258.498 494.387,263.351 491.085,268.286 C487.782,273.222 483.82,277.992 479.196,282.599 C474.573,287.205 469.288,290.989 463.344,293.95 C468.298,292.964 473.747,291.812 479.691,290.496 C484.644,289.179 490.425,287.452 497.029,285.313 C503.634,283.177 510.405,280.626 517.34,277.665 z" fill="#FFFFFF"/>
  </g>
  <defs/>
</svg>
