<?xml version="1.0" encoding="UTF-8"?>
<!DOCTYPE svg PUBLIC "-//W3C//DTD SVG 1.1//EN" "http://www.w3.org/Graphics/SVG/1.1/DTD/svg11.dtd">
<svg version="1.1" xmlns="http://www.w3.org/2000/svg" xmlns:xlink="http://www.w3.org/1999/xlink" x="0px" y="0px" width="311.811" height="198.425" viewBox="0, 0, 311.811, 198.425">
  <g id="Layer 1">
    <path d="M95.234,2.732 L95.234,43.5" fill-opacity="0" stroke="#FFFFFF" stroke-width="1"/>
    <path d="M94.621,2.535 L110.834,2.5" fill-opacity="0" stroke="#FFFFFF" stroke-width="1"/>
    <path d="M110.846,2.535 L110.846,20.5" fill-opacity="0" stroke="#FFFFFF" stroke-width="1"/>
    <path d="M111.59,22.746 L96.334,22.746" fill-opacity="0" stroke="#FFFFFF" stroke-width="1"/>
    <path d="M148.125,11.232 L148.125,2" fill-opacity="0" stroke="#FFFFFF" stroke-width="1"/>
    <path d="M152.711,2.178 L128.334,2.178" fill-opacity="0" stroke="#FFFFFF" stroke-width="1"/>
    <path d="M132.285,1.436 L132.285,46" fill-opacity="0" stroke="#FFFFFF" stroke-width="1"/>
    <path d="M130.172,43.785 L149.834,44" fill-opacity="0" stroke="#FFFFFF" stroke-width="1"/>
    <path d="M149.996,43.785 L149.996,27.5" fill-opacity="0" stroke="#FFFFFF" stroke-width="1"/>
    <path d="M153.596,27.287 L140.834,27.287" fill-opacity="0" stroke="#FFFFFF" stroke-width="1"/>
    <path d="M117.916,44.855 L105.334,44.855" fill-opacity="0" stroke="#FFFFFF" stroke-width="1"/>
    <path d="M154.453,41.627 L201.334,41.627" fill-opacity="0" stroke="#FFFFFF" stroke-width="1"/>
    <path d="M218.842,79.49 L250.834,79.49" fill-opacity="0" stroke="#FFFFFF" stroke-width="1"/>
    <path d="M5.408,79.262 L50.834,79.262" fill-opacity="0" stroke="#FFFFFF" stroke-width="1"/>
    <path d="M6.166,98.816 L6.166,126" fill-opacity="0" stroke="#FFFFFF" stroke-width="1"/>
    <path d="M3.438,123.34 L212.334,123.34" fill-opacity="0" stroke="#FFFFFF" stroke-width="1"/>
    <path d="M208.186,125.197 L208.186,92" fill-opacity="0" stroke="#FFFFFF" stroke-width="1"/>
    <path d="M206.33,98.701 L4.834,98.701" fill-opacity="0" stroke="#FFFFFF" stroke-width="1"/>
    <path d="M17.906,110.586 L193.834,110.586" fill-opacity="0" stroke="#FFFFFF" stroke-width="1"/>
    <path d="M220.941,98.316 L220.941,122" fill-opacity="0" stroke="#FFFFFF" stroke-width="1"/>
    <path d="M218.713,95.604 L290.834,95.604" fill-opacity="0" stroke="#FFFFFF" stroke-width="1"/>
    <path d="M289.643,96.975 L289.643,126" fill-opacity="0" stroke="#FFFFFF" stroke-width="1"/>
    <path d="M292.5,122.227 L224.334,122.227" fill-opacity="0" stroke="#FFFFFF" stroke-width="1"/>
    <path d="M232.711,109.344 L244.334,109.344" fill-opacity="0" stroke="#FFFFFF" stroke-width="1"/>
    <path d="M16.936,147.693 L64.834,147.693" fill-opacity="0" stroke="#FFFFFF" stroke-width="1"/>
    <path d="M32.404,159.818 L32.404,177.5" fill-opacity="0" stroke="#FFFFFF" stroke-width="1"/>
    <path d="M33.518,173.445 L14.834,172.5" fill-opacity="0" stroke="#FFFFFF" stroke-width="1"/>
    <path d="M17.293,177.045 L17.293,162" fill-opacity="0" stroke="#FFFFFF" stroke-width="1"/>
    <path d="M17.293,157.59 L35.834,157.59" fill-opacity="0" stroke="#FFFFFF" stroke-width="1"/>
    <path d="M20.393,165.76 L24.334,170.5" fill-opacity="0" stroke="#FFFFFF" stroke-width="1"/>
    <path d="M24.492,170.359 L28.334,163" fill-opacity="0" stroke="#FFFFFF" stroke-width="1"/>
    <path d="M40.346,170.104 L177.834,170.104" fill-opacity="0" stroke="#FFFFFF" stroke-width="1"/>
    <path d="M17.064,185.328 L17.064,198.5" fill-opacity="0" stroke="#FFFFFF" stroke-width="1"/>
    <path d="M13.723,185.586 L38.834,185.586" fill-opacity="0" stroke="#FFFFFF" stroke-width="1"/>
    <path d="M33.275,185.586 L33.275,197.5" fill-opacity="0" stroke="#FFFFFF" stroke-width="1"/>
    <path d="M37.375,197.869 L18.834,197.869" fill-opacity="0" stroke="#FFFFFF" stroke-width="1"/>
    <path d="M41.088,194.027 L172.334,194.027" fill-opacity="0" stroke="#FFFFFF" stroke-width="1"/>
  </g>
  <defs/>
</svg>
