<?xml version="1.0" encoding="UTF-8"?>
<!DOCTYPE svg PUBLIC "-//W3C//DTD SVG 1.1//EN" "http://www.w3.org/Graphics/SVG/1.1/DTD/svg11.dtd">
<svg version="1.1" xmlns="http://www.w3.org/2000/svg" xmlns:xlink="http://www.w3.org/1999/xlink" x="0px" y="0px" width="311.811" height="226.772" viewBox="0, 0, 311.811, 226.772">
  <g id="Layer 1">
    <path d="M55.211,38.268 L55.211,4.229" fill-opacity="0" stroke="#FFFFFF" stroke-width="1"/>
    <path d="M55.453,5.732 L249.5,5.732" fill-opacity="0" stroke="#FFFFFF" stroke-width="1"/>
    <path d="M246.975,5.609 L246.975,32.229" fill-opacity="0" stroke="#FFFFFF" stroke-width="1"/>
    <path d="M247.846,32.648 L56.5,32.648" fill-opacity="0" stroke="#FFFFFF" stroke-width="1"/>
    <path d="M79.732,19.266 L126.5,19.266" fill-opacity="0" stroke="#FFFFFF" stroke-width="1"/>
    <path d="M169.26,20.508 L234,20.508" fill-opacity="0" stroke="#FFFFFF" stroke-width="1"/>
    <path d="M2.748,41.676 L297.5,41.676" fill-opacity="0" stroke="#FFFFFF" stroke-width="1"/>
    <path d="M12.418,64.799 L285.5,64.799" fill-opacity="0" stroke="#FFFFFF" stroke-width="1"/>
    <path d="M12.445,92.408 L285,92.408" fill-opacity="0" stroke="#FFFFFF" stroke-width="1"/>
    <path d="M288.467,61.928 L288.467,94.229" fill-opacity="0" stroke="#FFFFFF" stroke-width="1"/>
    <path d="M15.744,63.785 L15.744,92.729" fill-opacity="0" stroke="#FFFFFF" stroke-width="1"/>
    <path d="M82.104,63.898 L82.104,91.729" fill-opacity="0" stroke="#FFFFFF" stroke-width="1"/>
    <path d="M150.32,62.285 L150.32,92.229" fill-opacity="0" stroke="#FFFFFF" stroke-width="1"/>
    <path d="M219.379,63.285 L219.379,91.729" fill-opacity="0" stroke="#FFFFFF" stroke-width="1"/>
    <path d="M163.402,80.996 L207,80.996" fill-opacity="0" stroke="#FFFFFF" stroke-width="1"/>
    <path d="M240.418,79.139 L268.5,79.139" fill-opacity="0" stroke="#FFFFFF" stroke-width="1"/>
    <path d="M103.258,78.268 L128,78.268" fill-opacity="0" stroke="#FFFFFF" stroke-width="1"/>
    <path d="M23.9,78.268 L71.5,78.268" fill-opacity="0" stroke="#FFFFFF" stroke-width="1"/>
    <path d="M17.73,222.5 L17.73,106.729" fill-opacity="0" stroke="#FFFFFF" stroke-width="1"/>
    <path d="M15.873,108.463 L287.5,108.463" fill-opacity="0" stroke="#FFFFFF" stroke-width="1"/>
    <path d="M285.438,109.562 L285.438,217.229" fill-opacity="0" stroke="#FFFFFF" stroke-width="1"/>
    <path d="M267.469,122.203 L278.5,122.203" fill-opacity="0" stroke="#FFFFFF" stroke-width="1"/>
    <path d="M149.648,7.195 L149.648,32.229" fill-opacity="0" stroke="#FFFFFF" stroke-width="1"/>
  </g>
  <defs/>
</svg>
