<?xml version="1.0" encoding="UTF-8"?>
<!DOCTYPE svg PUBLIC "-//W3C//DTD SVG 1.1//EN" "http://www.w3.org/Graphics/SVG/1.1/DTD/svg11.dtd">
<svg version="1.1" xmlns="http://www.w3.org/2000/svg" xmlns:xlink="http://www.w3.org/1999/xlink" x="0px" y="0px" width="255.118" height="226.772" viewBox="0, 0, 255.118, 226.772">
  <g id="Layer 1">
    <path d="M32.096,4.357 L215.167,4.357" fill-opacity="0" stroke="#FFFFFF" stroke-width="1"/>
    <path d="M9.185,110.643 L9.185,150.305" fill-opacity="0" stroke="#FFFFFF" stroke-width="1"/>
    <path d="M4.044,148.445 L227.833,148.445" fill-opacity="0" stroke="#FFFFFF" stroke-width="1"/>
    <path d="M218.594,147.628 L218.594,109.638" fill-opacity="0" stroke="#FFFFFF" stroke-width="1"/>
    <path d="M217.758,112.948 L9.833,112.948" fill-opacity="0" stroke="#FFFFFF" stroke-width="1"/>
    <path d="M88.979,125.458 L81.833,136.305" fill-opacity="0" stroke="#FFFFFF" stroke-width="1"/>
    <path d="M81.552,136.029 L96.5,135.638" fill-opacity="0" stroke="#FFFFFF" stroke-width="1"/>
    <path d="M96.596,135.362 L88.5,126.305" fill-opacity="0" stroke="#FFFFFF" stroke-width="1"/>
    <path d="M101.396,130.237 L145.167,130.237" fill-opacity="0" stroke="#FFFFFF" stroke-width="1"/>
    <path d="M61.937,176.268 L188.5,176.268" fill-opacity="0" stroke="#FFFFFF" stroke-width="1"/>
    <path d="M51.023,188.646 L202.5,188.646" fill-opacity="0" stroke="#FFFFFF" stroke-width="1"/>
    <path d="M48.034,203.5 L206.5,203.5" fill-opacity="0" stroke="#FFFFFF" stroke-width="1"/>
    <path d="M234.362,127.57 L247.167,127.57" fill-opacity="0" stroke="#FFFFFF" stroke-width="1"/>
    <path d="M230.896,131.531 L247.167,131.531" fill-opacity="0" stroke="#FFFFFF" stroke-width="1"/>
    <path d="M232.039,134.503 L250.5,134.503" fill-opacity="0" stroke="#FFFFFF" stroke-width="1"/>
  </g>
  <defs/>
</svg>
