<svg xmlns="http://www.w3.org/2000/svg" width="101" height="121" viewBox="0, 0, 101, 121"><path d="M28.709 28.63c3.516 0 7.758.726 12.727 2.179 5.015 1.454 8.343 2.18 9.984 2.18 2.109 0 5.555-.82 10.336-2.461 4.781-1.64 8.93-2.461 12.445-2.461 5.766 0 10.899 1.547 15.399 4.641 2.531 1.781 5.039 4.195 7.523 7.242-3.75 3.188-6.492 6.024-8.226 8.508-3.141 4.5-4.711 9.469-4.711 14.906 0 5.953 1.664 11.32 4.992 16.102 3.328 4.781 7.125 7.804 11.392 9.07-1.783 5.766-4.736 11.794-8.861 18.074-6.234 9.42-12.422 14.13-18.562 14.13-2.438 0-5.813-.77-10.125-2.32-4.266-1.55-7.875-2.32-10.828-2.32-2.954 0-6.399.8-10.336 2.39-3.891 1.64-7.055 2.46-9.493 2.46-7.359 0-14.578-6.23-21.656-18.7-7.078-12.331-10.617-24.425-10.617-36.284 0-11.016 2.695-19.992 8.086-26.93 5.437-6.938 12.281-10.406 20.531-10.406m44.297-27.703c.187.609.305 1.149.352 1.617.046.469.07.938.07 1.407 0 3-.703 6.281-2.109 9.844-1.407 3.562-3.633 6.867-6.68 9.913-2.625 2.579-5.227 4.313-7.805 5.204-1.64.515-4.125.914-7.453 1.195.094-7.125 1.945-13.289 5.555-18.492 3.656-5.203 9.679-8.766 18.07-10.687" fill="#fff"/></svg>