<svg xmlns="http://www.w3.org/2000/svg" width="419" height="419" viewBox="0, 0, 419, 419"><path d="M209.26 0c-115.382 0-209.26 93.871-209.26 209.26s93.878 209.26 209.26 209.26c115.382 0 209.26-93.871 209.26-209.26s-93.878-209.26-209.26-209.26zm0 405.02c-107.946 0-195.758-87.82-195.758-195.76s87.812-195.758 195.758-195.758c107.946 0 195.758 87.819 195.758 195.758 0 107.939-87.812 195.76-195.758 195.76zm-38.686-125.595l-65.26-65.257-9.547 9.542 74.807 74.807 151.595-151.588-9.545-9.545-142.05 142.041z" fill="#444"/></svg>