<svg xmlns="http://www.w3.org/2000/svg" width="466" height="450" viewBox="0, 0, 466, 450"><path d="M312.684 447.481c-2.279.817-4.559 1.786-6.903 2.194-8.937 1.583-14.668-2.986-14.719-12.044-.117-16.815-.117-33.605.154-50.42.297-19.342-.154-38.427-15.017-54.375 8.836-1.569 16.703-2.666 24.38-4.414 50.933-11.584 77.385-43.403 80.759-96.234 1.714-26.901-3.129-51.562-21.159-72.74-1.288-1.486-1.352-4.873-.747-7.042 4.816-17.505 3.4-34.607-2.19-51.722-1.378-4.274-3.683-5.588-7.919-5.314-14.952.823-28.656 6.023-40.735 14.015-11.642 7.751-22.485 9.435-36.316 6.296-30.471-6.806-61.127-4.815-91.526 2.157-3.439.809-8.069-.275-11.224-2.099-14.263-8.286-28.532-16.331-44.99-19.546-12.731-2.456-13.838-1.83-17.212 10.36-4.244 15.361-4.668 30.741-.329 46.21.619 2.246-.026 5.851-1.546 7.509-33.722 37.272-21.507 107.704 1.218 134.674 17.668 20.962 41.139 30.39 67.199 35.29 4.552.854 9.073 1.492 13.625 2.271-3.902 10.053-7.411 19.545-11.385 28.885-.772 1.811-3.238 3.317-5.26 4.094-25.558 9.824-47.528 2.603-62.151-20.374-7.817-12.26-17.855-21.408-32.808-24.062-.476-.076-.966-.345-1.398-.281-4.024 1.047-8.01 2.143-12.015 3.215 2.253 3.114 3.851 7.284 6.871 9.16 12.671 7.961 20.914 19.266 26.362 32.636 8.557 20.948 25.17 30.313 46.761 32.125 10.534.854 21.179.127 32.718.127 0 13.014.476 27.865-.2 42.651-.341 7.972-8.422 11.163-18.106 7.897-25.674-8.701-49.479-21.178-70.039-38.708-74.229-63.371-102.846-143.454-78.171-237.2 24.592-93.42 88.699-150.749 184.547-168.738 132.621-24.834 258.261 70.834 271.423 204.207 10.366 105.151-52.08 203.542-151.952 239.34zm-125.041-115.485l-.206.485.721.126c.185.026.347.332-.515-.611z" fill="#fff"/></svg>