<svg xmlns="http://www.w3.org/2000/svg" width="510.236" height="510.236" viewBox="0, 0, 510.236, 510.236"><g stroke="#fff" stroke-width="2" fill="none"><path d="M247.398 489.352c-134.334 0-243.234-108.9-243.234-243.235 0-134.334 108.9-243.234 243.234-243.234 134.335 0 243.235 108.9 243.235 243.234 0 134.335-108.9 243.235-243.235 243.235zM63.936 182.396h66.548c13.807 0 25 11.193 25 25v66.548c0 13.807-11.193 25-25 25h-66.548c-13.807 0-25-11.193-25-25v-66.548c0-13.807 11.193-25 25-25zM213.411 182.396h66.548c13.807 0 25 11.193 25 25v66.548c0 13.807-11.193 25-25 25h-66.548c-13.807 0-25-11.193-25-25v-66.548c0-13.807 11.193-25 25-25zM363.69 182.649h66.548c13.807 0 25 11.193 25 25v66.548c0 13.807-11.193 25-25 25h-66.548c-13.807 0-25-11.193-25-25v-66.548c0-13.807 11.193-25 25-25zM38.936 139.812h416.302M52.773 377.453h380.512M247.217 228.758v23.828M235.076 241.07h23.391"/><path d="M229.366 208.172h36.435c8.284 0 15 6.716 15 15v35.747c0 8.285-6.716 15-15 15h-36.435c-8.284 0-15-6.715-15-15v-35.747c0-8.284 6.716-15 15-15zM74.91 257.221c-8.92 0-16.151-7.231-16.151-16.151s7.231-16.151 16.151-16.151 16.151 7.231 16.151 16.151-7.231 16.151-16.151 16.151zM119.388 257.221c-8.92 0-16.151-7.231-16.151-16.151s7.231-16.151 16.151-16.151 16.151 7.231 16.151 16.151-7.231 16.151-16.151 16.151zM55.79 241.07h2.969M139.267 240.642h-3.032M91.9 239.412c1.039-2.093 2.914-3.647 5.31-3.722 2.442.004 4.212 1.698 5.31 3.722M370.688 219.28v56.608M371.082 219.28h26.656M397.737 219.28v12.208M397.737 231.488h12.6M371.351 276.024l38.587.264M410.87 276.482v-44.194M398.289 219.727l12.848 12.161M411.755 206.009v13.079M412.647 219.087h11.69M424.245 218.344v44.344M424.096 262.667h-12.158M384.56 218.589l-.422-12.701M384.114 205.803h27.224M412.004 207.207l12.189 11.288"/></g></svg>