<svg xmlns="http://www.w3.org/2000/svg" width="394" height="394" viewBox="0, 0, 394, 394"><path d="M251.021 181.21h-8.213v-24.991c0-25.549-20.767-46.32-46.316-46.32-25.538 0-46.308 20.771-46.308 46.32v24.991h-8.206c-4.72 0-8.544 3.83-8.544 8.551v84.818c0 4.712 3.824 8.544 8.544 8.544h109.05c4.713 0 8.545-3.831 8.545-8.544v-84.818c-.008-4.714-3.832-8.551-8.552-8.551zm-25.3 0h-58.443v-24.991c0-16.116 13.101-29.225 29.214-29.225 16.116 0 29.228 13.108 29.228 29.225v24.991zm-29.214-181.21c-108.354 0-196.507 88.154-196.507 196.505 0 108.349 88.153 196.502 196.507 196.502 108.347 0 196.5-88.152 196.5-196.502-.008-108.351-88.153-196.505-196.5-196.505zm0 361.34c-90.895 0-164.836-73.938-164.836-164.835 0-90.888 73.942-164.83 164.836-164.83 90.88 0 164.826 73.942 164.826 164.83-.001 90.889-73.946 164.835-164.826 164.835z" fill="#fff"/></svg>