<svg xmlns="http://www.w3.org/2000/svg" width="457" height="288" viewBox="0, 0, 457, 288"><path d="M26.769 0c-7.139 0-11.6.584-13.385 1.753-1.785 1.169-2.082 2.484-.893 3.945 1.191 1.461 4.165 3.945 8.923 7.451 2.38 1.753 4.164 3.215 5.354 4.383l201.659 150.773 201.659-149.896 4.462-4.384c4.759-3.506 7.882-5.99 9.369-7.451 1.487-1.46 1.338-2.921-.446-4.383-1.786-1.462-6.246-2.191-13.385-2.191h-403.317zm-26.769 35.063v222.654c0 6.429 2.677 13.002 8.031 19.724 5.355 6.721 10.708 10.08 16.062 10.08h408.671c5.355 0 10.708-3.36 16.062-10.08 5.354-6.721 8.03-13.296 8.03-19.724v-222.653l-228.428 171.811-228.428-171.812z" fill="#fff"/></svg>