<svg xmlns="http://www.w3.org/2000/svg" width="310" height="287" viewBox="0, 0, 310, 287"><g stroke="#fff" fill="none"><path d="M9.5 5.5h288M292.613 5.5v204M1.637 209.5h309.769M6.805 219.242v-217.437M25.117 30.305h34.289M261.891 29.619h16.795M22.205 63.656h251.481M22.205 97.807v32.689M19.837 130.822l260.349-.078M276.473 92.479v41.517M278.943 97.693h-268.257M149.496 94.465v38.531M110.746 112.918h-52.56M192.674 114.033h43.012M173.492 105.592v14.904M174.734 120.703h-17.548M160.252 120.703v-16.707M157.523 104.219h20.163M162.338 113.262l2.848 2.734M165.08 115.746l5.106-5.75"/><path d="M73.22 72.238c-5.84 0-10.574-4.734-10.574-10.573s4.734-10.573 10.574-10.573c5.839 0 10.573 4.734 10.573 10.573s-4.734 10.573-10.573 10.573zM26.221 155.211v33.785M17.422 189.891h261.764M276.73 192.891v-39.395M276.23 158.824h-253.044M80.41 172.922h136.276M267.732 209.066l-15.046 12.43M252.736 221.723l-11.55-14.727M22.963 243.746v44.75M19.977 286.225h257.209M277.973 288.467v-45.971M282.93 241.904h-262.244M229.611 239.918v46.078M172.908 268.385h-50.722M245.793 258.215l17.393-.219M263.02 257.844v14.152M263.02 271.842h-15.834M247.279 271.842v-12.346"/></g><defs><clipPath><path d="M-965-571h2054v1187h-2054z"/></clipPath></defs></svg>