<svg xmlns="http://www.w3.org/2000/svg" width="64" height="64" viewBox="0, 0, 64, 64"><path d="M44.789 5.983l-7.071 7.071-19.949 19.95-7.956 20.683 20.683-7.955 21.363-21.363 5.657-5.657-12.727-12.729zm-31.493 44.221l1.782-4.635 2.852 2.852-4.634 1.783zm16.086-6.187l-9.41 3.619-4.109-4.109 3.142-8.172 4.569 4.569 1.414-1.414-4.95-4.95 13.436-13.435 3.535 3.536 1.414-1.414-3.535-3.536 1.414-1.414 3.536 3.536 1.414-1.414-3.535-3.536 1.414-1.414 6.364 6.364-17.677 17.678 1.414 1.414 17.678-17.678 2.121 2.121-19.649 19.649zm21.063-21.063l-9.899-9.899 4.243-4.243 9.899 9.899-4.243 4.243z" fill="#fff"/></svg>