<svg xmlns="http://www.w3.org/2000/svg" width="366" height="367" viewBox="0, 0, 366, 367"><path d="M203.004 366.041h-38.469c-5.787 0-7.807.014-27.528-49.865l-15.234-6.318c-41.505 19.22-46.419 19.22-48.06 19.22h-3.177l-2.707-2.375-27.271-27.232c-4.145-4.223-5.583-5.694 15.755-54.916l-6.208-15.005c-50.105-18.323-50.105-20.443-50.105-26.487v-38.495c0-6.03 0-7.935 49.937-27.643l6.21-15.034c-22.57-48.475-21.019-49.98-16.565-54.256l29.326-29.348 3.64-.117c4.43 0 20.855 6.117 48.865 18.189l15.189-6.295c18.285-50.07 20.527-50.064 26.296-50.064h38.469c5.766 0 7.787.006 27.516 49.894l15.249 6.274c41.443-19.193 46.422-19.193 48.081-19.193h3.152l2.713 2.333 27.268 27.188c4.142 4.273 5.565 5.736-15.773 54.977l6.227 15.084c50.166 18.245 50.166 20.367 50.166 26.417v38.451c0 5.89 0 7.961-50.004 27.684l-6.164 15.049c22.448 48.261 20.971 49.777 16.772 54.096l-29.55 29.531-3.669.108c-4.406 0-20.791-6.128-48.767-18.215l-15.275 6.304c-18.337 50.059-20.415 50.059-26.305 50.059zm-34.47-15.895h30.339c3.489-7.242 11.014-26.45 17.035-42.995l1.217-3.293 27.627-11.387 2.971 1.287c16.466 7.171 35.927 15.107 43.508 17.552l21.326-21.289c-2.707-7.662-10.919-26.41-18.325-42.223l-1.498-3.216 11.43-27.856 3.114-1.223c16.634-6.535 35.902-14.604 43.102-18.277v-29.904c-7.287-3.492-26.481-10.948-43.021-16.934l-3.238-1.182-11.506-27.878 1.373-3.143c7.076-16.304 14.95-35.538 17.471-43.285l-21.376-21.331c-6.901 2.458-26.218 10.909-42.516 18.5l-3.038 1.423-27.621-11.368-1.237-3.137c-6.532-16.634-14.643-35.925-18.306-43.067h-30.316c-3.501 7.226-11.002 26.439-17.016 42.975l-1.194 3.273-27.55 11.429-2.971-1.299c-16.504-7.154-36.001-15.084-43.613-17.523l-21.28 21.3c2.67 7.648 10.905 26.385 18.284 42.198l1.514 3.222-11.487 27.841-3.093 1.219c-16.606 6.529-35.843 14.588-43.045 18.253v29.945c7.284 3.503 26.458 10.979 42.986 16.99l3.216 1.191 11.506 27.788-1.373 3.139c-7.082 16.292-14.947 35.492-17.477 43.23l21.422 21.399c6.882-2.478 26.179-10.936 42.498-18.526l3.055-1.427 27.568 11.438 1.232 3.134c6.554 16.632 14.644 35.89 18.303 43.037zm14.448-103.063c-35.275 0-64.001-28.742-64.001-64.065 0-35.301 28.719-64.021 64.001-64.021 35.259 0 63.911 28.725 63.911 64.021 0 35.323-28.652 64.065-63.911 64.065zm0-112.18c-26.702 0-48.406 21.587-48.406 48.115 0 26.548 21.698 48.15 48.406 48.15 26.654 0 48.337-21.602 48.337-48.15 0-26.528-21.682-48.115-48.337-48.115z" fill="#fff"/></svg>