<svg xmlns="http://www.w3.org/2000/svg" width="126" height="126" viewBox="0, 0, 126, 126"><path d="M102.328 48.928h-2.449v-11.818l-.021-.223c-.004-.469-.154-.93-.475-1.295l-19.666-22.465-.016-.014c-.117-.131-.254-.24-.398-.334l-.131-.078c-.125-.068-.258-.125-.395-.166l-.107-.035c-.148-.035-.303-.057-.459-.057h-48.332c-2.207 0-4 1.795-4 4v32.484h-2.449c-3.157 0-5.717 2.559-5.717 5.717v29.73c0 3.156 2.56 5.717 5.717 5.717h2.449v20.352c0 2.205 1.793 4 4 4h66c2.205 0 4-1.795 4-4v-20.351h2.449c3.157 0 5.717-2.561 5.717-5.717v-29.73c0-3.158-2.56-5.717-5.717-5.717zm-72.449-32.484h46.332v20.465c0 1.105.896 2 2 2h17.668v10.02h-66v-32.485zm44.754 37.79l-10.061 29.868h-7.887l-9.572-29.868h7.401l3.633 12.629c1.02 3.545 1.95 6.957 2.659 10.679h.133c.752-3.59 1.683-7.134 2.702-10.546l3.812-12.763h7.18zm-50.077 28.494l1.373-5.584c1.817.93 4.609 1.861 7.489 1.861 3.102 0 4.742-1.284 4.742-3.234 0-1.861-1.419-2.925-5.009-4.21-4.963-1.728-8.197-4.475-8.197-8.817 0-5.097 4.254-8.996 11.299-8.996 3.368 0 5.85.708 7.622 1.506l-1.505 5.451c-1.197-.577-3.323-1.418-6.249-1.418-2.924 0-4.343 1.33-4.343 2.88 0 1.906 1.683 2.749 5.54 4.21 5.272 1.95 7.754 4.697 7.754 8.906 0 5.008-3.854 9.262-12.054 9.262-3.411 0-6.78-.886-8.462-1.817zm71.323 26.632h-66v-19.268h66v19.268zm6.539-26.632c-2.082.708-6.025 1.685-9.969 1.685-5.451 0-9.395-1.375-12.143-4.032-2.748-2.57-4.253-6.471-4.21-10.857.046-9.927 7.269-15.599 17.062-15.599 3.854 0 6.824.754 8.286 1.462l-1.419 5.408c-1.64-.709-3.676-1.287-6.956-1.287-5.629 0-9.882 3.191-9.882 9.661 0 6.16 3.854 9.793 9.395 9.793 1.551 0 2.791-.178 3.322-.443v-6.249h-4.606v-5.273h11.12v15.731z" fill="#fff"/></svg>