<svg xmlns="http://www.w3.org/2000/svg" width="445" height="370" viewBox="0, 0, 445, 370"><path d="M444.358 43.809c-2.972 6.251-8.504 14.148-16.595 23.691-8.091 9.542-18.081 17.932-29.971 25.17.33 2.633.577 5.1.743 7.403.166 2.304.248 4.771.248 7.403 0 13.819-1.568 28.955-4.705 45.406-3.137 16.452-8.01 33.15-14.614 50.096-6.605 16.945-14.943 33.726-25.017 50.342-10.073 16.616-22.045 31.998-35.916 46.146-13.87 14.149-29.64 26.654-47.309 37.512-17.669 10.858-37.401 18.919-59.198 24.182-25.429 5.595-50.859 8.391-76.289 8.391-10.899 0-22.21-.576-33.934-1.727-11.724-1.153-23.448-3.29-35.172-6.416-11.724-3.127-23.282-7.321-34.677-12.586-11.394-5.263-22.044-12.01-31.952-20.235 25.76 3.62 50.116 1.561 73.069-6.17 22.952-7.732 43.842-18.672 62.666-32.821-4.294 0-9.99-.411-17.091-1.233-7.1-.824-14.696-3.291-22.787-7.403-8.091-4.115-16.265-10.447-24.521-19.003-8.256-8.553-15.522-20.563-21.796-36.029 1.981.658 4.705 1.069 8.174 1.235 3.467.164 7.183.082 11.146-.25 3.963-.329 7.844-.739 11.642-1.231 3.798-.494 7.183-1.069 10.156-1.73-17.173-5.263-30.631-12.256-40.374-20.975-9.742-8.72-16.925-17.687-21.549-26.898-4.623-9.214-7.513-17.933-8.669-26.158-1.156-8.226-1.734-14.644-1.734-19.249 4.294 2.631 10.568 5.429 18.825 8.39 8.256 2.961 15.687 4.277 22.292 3.948-13.54-11.187-23.366-22.292-29.476-33.314-6.11-11.023-9.742-21.716-10.899-32.081-1.156-10.365-.577-20.482 1.734-30.353 2.312-9.871 5.449-19.413 9.412-28.626 18.165 20.4 36.246 36.934 54.245 49.602 17.999 12.668 35.172 22.457 51.52 29.366 16.348 6.91 31.622 11.516 45.823 13.819 14.201 2.304 26.585 3.455 37.154 3.455-1.982-13.161-2.065-25.664-.25-37.509 1.816-11.846 5.616-22.703 11.394-32.574 5.78-9.871 13.457-18.344 23.035-25.418 9.577-7.075 20.971-12.421 34.182-16.041 16.182-4.606 31.705-4.442 46.565.494 14.862 4.936 27.577 13.491 38.144 25.665 4.624-.33 11.89-1.81 21.799-4.442 9.906-2.633 22.292-8.39 37.152-17.274-.99 3.289-2.559 7.32-4.705 12.091-2.147 4.772-4.873 9.625-8.175 14.56-3.303 4.936-7.265 9.706-11.889 14.313-4.623 4.606-9.908 8.39-15.852 11.351 4.954-.986 10.403-2.138 16.347-3.454 4.953-1.317 10.734-3.044 17.338-5.183 6.605-2.136 13.376-4.687 20.311-7.648z" fill="#fff"/></svg>