<svg xmlns="http://www.w3.org/2000/svg" width="311.811" height="198.425" viewBox="0, 0, 311.811, 198.425"><g stroke="#fff" fill="none"><path d="M95.234 2.732v40.768M94.621 2.535l16.213-.035M110.846 2.535v17.965M111.59 22.746h-15.256M148.125 11.232v-9.232M152.711 2.178h-24.377M132.285 1.436v44.564M130.172 43.785l19.662.215M149.996 43.785v-16.285M153.596 27.287h-12.762M117.916 44.855h-12.582M154.453 41.627h46.881M218.842 79.49h31.992M5.408 79.262h45.426M6.166 98.816v27.184M3.438 123.34h208.896M208.186 125.197v-33.197M206.33 98.701h-201.496M17.906 110.586h175.928M220.941 98.316v23.684M218.713 95.604h72.121M289.643 96.975v29.025M292.5 122.227h-68.166M232.711 109.344h11.623M16.936 147.693h47.898M32.404 159.818v17.682M33.518 173.445l-18.684-.945M17.293 177.045v-15.045M17.293 157.59h18.541M20.393 165.76l3.941 4.74M24.492 170.359l3.842-7.359M40.346 170.104h137.488M17.064 185.328v13.172M13.723 185.586h25.111M33.275 185.586v11.914M37.375 197.869h-18.541M41.088 194.027h131.246"/></g></svg>