<svg xmlns="http://www.w3.org/2000/svg" width="311.811" height="226.772" viewBox="0, 0, 311.811, 226.772"><g stroke="#fff" fill="none"><path d="M55.211 38.268v-34.039M55.453 5.732h194.047M246.975 5.609v26.62M247.846 32.648h-191.346M79.732 19.266h46.768M169.26 20.508h64.74M2.748 41.676h294.752M12.418 64.799h273.082M12.445 92.408h272.555M288.467 61.928v32.301M15.744 63.785v28.944M82.104 63.898v27.831M150.32 62.285v29.944M219.379 63.285v28.444M163.402 80.996h43.598M240.418 79.139h28.082M103.258 78.268h24.742M23.9 78.268h47.6M17.73 222.5v-115.771M15.873 108.463h271.627M285.438 109.562v107.667M267.469 122.203h11.031M149.648 7.195v25.034"/></g></svg>